<svg width="589" height="214" viewBox="0 0 589 214" fill="none" xmlns="http://www.w3.org/2000/svg">
<path d="M462.771 134V116.422H472.896L475.416 118.941V131.48L472.896 134H462.771ZM465.795 119.445V130.977H471.373L472.392 129.957V120.465L471.373 119.445H465.795ZM487.245 116.422H498.953V119.445H490.269V123.699H497.042V126.723H490.269V130.977H498.953V134H487.245V116.422ZM510.806 131.48V128.551H513.829V129.957L514.849 130.977H519.407L520.439 129.945V127.754L519.419 126.723H513.325L510.806 124.203V118.941L513.325 116.422H520.931L523.45 118.941V121.871H520.427V120.465L519.407 119.434H514.86L513.841 120.465V122.68L514.849 123.699H520.931L523.45 126.219V131.48L520.931 134H513.325L510.806 131.48ZM535.28 116.422H538.304V134H535.28V116.422ZM550.122 131.48V118.941L552.641 116.422H560.247L562.766 118.941V122.129H559.743V120.465L558.723 119.434H554.176L553.157 120.465V129.957L554.165 130.977H558.723L559.743 129.957V127.543H557.376V124.52H562.766V131.48L560.247 134H552.641L550.122 131.48ZM574.596 134V116.422H579.014L584.217 129.242V116.422H587.241V134H582.846L577.62 121.203V134H574.596Z" fill="#9D9D9D"/>
<path d="M124.184 29.4648H124.477C126.391 29.4648 127.758 30.1484 128.578 31.5156C128.578 33.0391 120.688 52.0039 104.906 88.4102C92.0156 117.043 82.8359 139.855 77.3672 156.848V158.312C80.7266 154.367 98.793 131.262 131.566 88.9961C140.551 77.9805 148.656 68.9961 155.883 62.043H157.641C158.812 62.1602 159.398 62.4531 159.398 62.9219C158.852 65.4609 151.938 80.1875 138.656 107.102C125.453 137.062 118.852 157.395 118.852 168.098C118.852 171.496 120.316 175.559 123.246 180.285V180.578C122.348 181.945 120.688 182.629 118.266 182.629C114.906 182.629 113.227 181.047 113.227 177.883C114.75 163.391 116.527 153.215 118.559 147.355C123.949 131.223 132.328 111.281 143.695 87.5312C145.688 83.625 148.656 77.2969 152.602 68.5469H152.309C143.051 78.3516 130.219 93.8594 113.812 115.07C96.2734 138.312 83.6172 154.406 75.8438 163.352C74.7891 163.977 73.9102 164.289 73.207 164.289C73.207 164.172 72.6211 163.469 71.4492 162.18V161.301C72.582 147.707 86.5078 109.387 113.227 46.3398H112.875C59.2812 111.027 25.8047 155.871 12.4453 180.871C10.5703 186.652 9.59375 191.086 9.51562 194.172C8.73438 195.031 7.25 195.637 5.0625 195.988C1.89844 195.441 0.316406 194.738 0.316406 193.879V192.121C0.316406 180.832 16.4102 147.844 48.5977 93.1562L56.918 78.332C58.832 77.7461 60.0039 77.4531 60.4336 77.4531C63.3242 77.4531 65.0039 78.3516 65.4727 80.1484C61.4883 87.6875 50.2383 107.727 31.7227 140.266L30.8438 142.023H31.4297C55.8438 108.352 85.2773 71.125 119.73 30.3438C121.605 29.7578 123.09 29.4648 124.184 29.4648ZM171.34 108.801C174.348 108.801 178.488 110.93 183.762 115.188C186.34 112.688 187.844 111.438 188.273 111.438H189.445C190.109 111.438 190.598 111.75 190.91 112.375C190.91 113.195 188.41 117.199 183.41 124.387C180.637 128.527 179.25 131.789 179.25 134.172V134.582C179.25 136.223 180.5 137.043 183 137.043C189.367 137.043 198.156 129.953 209.367 115.773H210.48C210.676 115.773 210.871 115.949 211.066 116.301C200.09 130.871 190.617 138.156 182.648 138.156C178.625 138.156 176.613 136.457 176.613 133.059C176.887 129.895 178.645 125.695 181.887 120.461C181.73 120.461 181.105 120.402 180.012 120.285C167.707 132.824 159.484 139.094 155.344 139.094H154.641C153.117 138.781 152.355 138.02 152.355 136.809V135.52C152.551 130.949 157.199 122.863 166.301 111.262C167.59 109.621 169.27 108.801 171.34 108.801ZM173.625 115.012C167.258 121.418 162.355 127.238 158.918 132.473C157.941 134.348 157.453 135.422 157.453 135.695H157.805C161.047 133.742 167.707 127.727 177.785 117.648C176.379 116.359 174.992 115.48 173.625 115.012ZM248.262 108.156H249.492C250.586 108.156 251.289 108.508 251.602 109.211V109.504C251.602 109.738 251.23 112.004 250.488 116.301C250.371 117.199 250.312 117.961 250.312 118.586C250.312 122.531 252.09 124.504 255.645 124.504C258.809 124.504 263.223 122.727 268.887 119.172C270.449 118 271.875 116.848 273.164 115.715C273.32 115.598 273.457 115.539 273.574 115.539C274.199 115.695 274.512 115.871 274.512 116.066V116.301C274.512 116.77 273.047 118.078 270.117 120.227C264.102 123.938 258.789 125.793 254.18 125.793C250.43 125.793 248.008 124.328 246.914 121.398C246.328 119.523 246.035 117.746 246.035 116.066C246.074 115.793 246.094 115.578 246.094 115.422V114.953C246.094 114.016 246.191 112.863 246.387 111.496H246.328C244.141 112.551 240.762 114.992 236.191 118.82C230.371 124.406 226.426 128.43 224.355 130.891C221.152 134.523 218.164 137.707 215.391 140.441C214.844 140.871 214.219 141.086 213.516 141.086H212.988C211.191 141.086 210.059 140.461 209.59 139.211V138.449C209.59 136.926 213.75 128.664 222.07 113.664C223.477 111.281 224.453 109.992 225 109.797C226.133 109.367 227.188 109.152 228.164 109.152C230.898 109.387 232.266 110.109 232.266 111.32C232.148 111.711 231.152 113.43 229.277 116.477C227.168 120.383 225.254 123.938 223.535 127.141H223.652C229.746 121.125 234.414 116.848 237.656 114.309C242.852 110.207 246.387 108.156 248.262 108.156ZM291.316 108.801C294.324 108.801 298.465 110.93 303.738 115.188C306.316 112.688 307.82 111.438 308.25 111.438H309.422C310.086 111.438 310.574 111.75 310.887 112.375C310.887 113.195 308.387 117.199 303.387 124.387C300.613 128.527 299.227 131.789 299.227 134.172V134.582C299.227 136.223 300.477 137.043 302.977 137.043C309.344 137.043 318.133 129.953 329.344 115.773H330.457C330.652 115.773 330.848 115.949 331.043 116.301C320.066 130.871 310.594 138.156 302.625 138.156C298.602 138.156 296.59 136.457 296.59 133.059C296.863 129.895 298.621 125.695 301.863 120.461C301.707 120.461 301.082 120.402 299.988 120.285C287.684 132.824 279.461 139.094 275.32 139.094H274.617C273.094 138.781 272.332 138.02 272.332 136.809V135.52C272.527 130.949 277.176 122.863 286.277 111.262C287.566 109.621 289.246 108.801 291.316 108.801ZM293.602 115.012C287.234 121.418 282.332 127.238 278.895 132.473C277.918 134.348 277.43 135.422 277.43 135.695H277.781C281.023 133.742 287.684 127.727 297.762 117.648C296.355 116.359 294.969 115.48 293.602 115.012ZM399.527 57.0625H401.637C404.918 57.4922 406.559 58.8984 406.559 61.2812C406.559 67.8047 396.246 80.1484 375.621 98.3125C363.59 108.156 354.293 114.25 347.73 116.594C341.949 127.375 339.059 135.344 339.059 140.5V141.906C339.059 145.422 340.465 147.688 343.277 148.703H343.746C354.371 148.703 369.215 137.766 388.277 115.891H389.449C389.762 115.891 389.918 116.125 389.918 116.594C388.863 118.82 383.16 124.914 372.809 134.875C360.934 145.031 351.168 150.109 343.512 150.109H342.34C338.238 150.109 335.348 147.375 333.668 141.906C333.473 139.445 333.316 138.117 333.199 137.922C333.199 127.023 340.465 111.477 354.996 91.2812C358.668 86.2031 364.84 79.4844 373.512 71.125C384.449 61.75 393.121 57.0625 399.527 57.0625ZM350.543 111.906C350.699 111.906 350.777 111.984 350.777 112.141C356.598 109.602 367.535 101.008 383.59 86.3594C395.777 73.8984 401.871 65.7734 401.871 61.9844V60.5781C401.52 59.7969 400.816 59.4062 399.762 59.4062C391.324 61.0078 378.746 72.8047 362.027 94.7969C358.043 100.031 354.215 105.734 350.543 111.906ZM404.672 112.258C407.367 112.531 408.715 113.332 408.715 114.66C408.285 115.402 406.82 117.102 404.32 119.758C399.125 126.359 396.527 130.871 396.527 133.293V134.289C396.723 136.203 397.68 137.16 399.398 137.16H400.219C405.688 137.16 415.121 131.125 428.52 119.055C428.52 118.898 429.438 118 431.273 116.359H432.621C432.855 116.398 432.973 116.496 432.973 116.652V116.828C429.496 120.617 425.98 123.898 422.426 126.672C412.504 134.602 404.887 138.566 399.574 138.566C396.645 138.566 394.262 136.926 392.426 133.645C392.23 132.512 392.133 131.496 392.133 130.598C392.133 126.418 394.555 121.164 399.398 114.836C400.609 113.117 402.367 112.258 404.672 112.258ZM412.348 101.359H412.523C414.086 101.359 415.238 101.848 415.98 102.824C416.176 103.176 416.273 103.508 416.273 103.82V104.055C416.273 105.188 415.609 106.398 414.281 107.688C413.031 108.859 411.645 109.445 410.121 109.445H409.594C407.914 109.445 406.84 108.859 406.371 107.688C406.293 107.57 406.254 107.375 406.254 107.102V106.867C406.254 106.125 406.664 105.188 407.484 104.055C409.086 102.258 410.707 101.359 412.348 101.359Z" fill="#CECECE"/>
</svg>
